<svg width="85" height="95" viewBox="0 0 85 95" fill="none" xmlns="http://www.w3.org/2000/svg">
<rect width="65" height="65" rx="32.5" fill="#70B446" fill-opacity="0.1"/>
<g clip-path="url(#clip0_1_94)">
<path d="M51.0009 9.88696C42.4219 9.88696 34.3569 13.227 28.2919 19.293C22.2259 25.359 18.8869 33.423 18.8879 42.001C18.8879 50.579 22.2279 58.586 28.2919 64.652C34.3569 70.717 42.4209 74 50.9989 74C50.9999 74 51.0009 74 51.0009 74H51.0039C68.7099 74 83.1139 59.649 83.1129 41.943C83.1139 33.365 79.7729 25.329 73.7079 19.263C67.6439 13.199 59.5789 9.88696 51.0009 9.88696ZM50.9999 72.113V73.113V72C50.9989 72 50.9989 72 50.9979 72C42.9549 72 35.3929 68.924 29.7059 63.238C24.0199 57.55 20.8879 50.017 20.8879 41.973C20.8869 33.929 24.0179 26.381 29.7059 20.693C35.3939 15.005 42.9559 11.881 51.0009 11.881C59.0449 11.881 66.6059 15.017 72.2939 20.704C77.9819 26.392 81.1109 33.955 81.1109 41.999C81.1119 58.601 67.9999 72.112 50.9999 72.113Z" fill="#70B446"/>
<path d="M51 19C44.856 19 39.081 21.393 34.737 25.738C30.393 30.082 28 35.857 28 42H30C30 36.392 32.185 31.118 36.151 27.151C40.117 23.185 45.391 21 51 21C56.609 21 61.883 23.185 65.85 27.152C69.815 31.119 72 36.392 72 42H74C74 35.858 71.607 30.082 67.264 25.737C62.921 21.392 57.144 19 51 19Z" fill="#70B446"/>
<path d="M49.7569 42.2929L43.7569 35.3459L42.2429 36.6539L48.3149 43.6859C48.1149 44.0949 47.9979 44.5429 47.9999 45.0129C48.0039 45.8139 48.3179 46.5659 48.8879 47.1299C49.4529 47.6909 50.2039 47.9999 50.9999 47.9999C51.8069 47.9999 52.5619 47.6849 53.1309 47.1119C54.2939 45.9369 54.2859 44.0339 53.1119 42.8699C52.2329 41.9989 50.8569 41.8129 49.7569 42.2929ZM51.7099 45.7039C51.3339 46.0819 50.6749 46.0849 50.2959 45.7099C50.1069 45.5219 50.0009 45.2709 49.9999 45.0039C49.9989 44.7369 50.1019 44.4859 50.2909 44.2959C50.4789 44.1039 50.7309 43.9999 50.9999 43.9999C51.2659 43.9999 51.5159 44.1029 51.7039 44.2909C52.0959 44.6779 52.0979 45.3119 51.7099 45.7039Z" fill="#70B446"/>
</g>
<defs>
<clipPath id="clip0_1_94">
<rect width="64" height="64" fill="white" transform="translate(19 10)"/>
</clipPath>
</defs>
</svg>
